<?xml version="1.0" encoding="UTF-8" standalone="no"?>
<!-- Created with Inkscape (http://www.inkscape.org/) -->

<svg
   width="144mm"
   height="144mm"
   viewBox="0 0 144 144"
   version="1.1"
   id="svg5"
   xml:space="preserve"
   sodipodi:docname="logo.svg"
   inkscape:version="1.2.1 (9c6d41e410, 2022-07-14)"
   xmlns:inkscape="http://www.inkscape.org/namespaces/inkscape"
   xmlns:sodipodi="http://sodipodi.sourceforge.net/DTD/sodipodi-0.dtd"
   xmlns="http://www.w3.org/2000/svg"
   xmlns:svg="http://www.w3.org/2000/svg"><sodipodi:namedview
     id="namedview7"
     pagecolor="#ffffff"
     bordercolor="#000000"
     borderopacity="0.25"
     inkscape:showpageshadow="2"
     inkscape:pageopacity="0.0"
     inkscape:pagecheckerboard="0"
     inkscape:deskcolor="#d1d1d1"
     inkscape:document-units="mm"
     showgrid="false"
     inkscape:zoom="1.5215769"
     inkscape:cx="278.65828"
     inkscape:cy="289.17369"
     inkscape:window-width="2048"
     inkscape:window-height="2281"
     inkscape:window-x="-8"
     inkscape:window-y="-8"
     inkscape:window-maximized="1"
     inkscape:current-layer="layer1" /><defs
     id="defs2" /><g
     inkscape:label="Layer 1"
     inkscape:groupmode="layer"
     id="layer1"><g
       aria-label="MM"
       transform="matrix(0.70393301,0,0,1.4205897,-32.214758,-89.512764)"
       id="text472"
       style="font-size:43.8702px;font-family:Georgia;-inkscape-font-specification:Georgia;text-align:center;text-anchor:middle;fill:none;fill-rule:evenodd;stroke:#000000;stroke-width:0.0652487;stroke-linecap:round;paint-order:markers fill stroke" /><path
       style="fill:none;fill-rule:evenodd;stroke:#000000;stroke-width:0.102;stroke-linecap:round;paint-order:markers fill stroke"
       d="m 54.381259,111.1535 c -3.428588,-0.67283 -6.541412,1.07348 -9.583818,2.30402 -2.885159,1.7574 -8.104131,0.28248 -5.18637,-3.55727 -1.238241,-2.63773 -4.889579,-1.57065 -6.471539,-4.32683 -2.401602,-1.23951 -2.287526,-5.848299 -6.559293,-4.96476 -3.075293,-0.868275 -4.941974,-4.103929 -7.82446,-5.499353 -3.061685,-2.238829 -7.312347,0.06609 -10.2616803,-1.658103 2.8935973,-2.504773 7.5462933,-1.514235 11.1522713,-2.620404 2.798941,-0.731691 5.657398,-0.336213 8.506985,-0.924411 2.591698,0.132004 4.769131,-4.105568 6.23241,-0.01934 3.787397,9.24467 11.623285,16.630767 20.74085,20.579087 l -0.337396,0.37746 z"
       id="path401" /><path
       style="fill:none;fill-rule:evenodd;stroke:#000000;stroke-width:0.102;stroke-linecap:round;paint-order:markers fill stroke"
       d="m 66.596971,118.45681 c -1.330975,3.206 -0.998672,6.88603 -2.641717,9.98648 -0.554051,1.12979 -2.114315,1.61406 -3.179368,0.9067 -0.873206,-0.49142 -1.201241,-1.68284 -0.706525,-2.55446 0.391644,-0.72579 1.07147,-1.26033 1.37596,-2.04409 0.998531,-2.1482 0.707775,-4.61743 1.526947,-6.82029 0.474144,-1.4493 0.835862,-3.03402 1.904141,-4.18121 0.576774,-0.64799 1.583515,-0.69411 2.28729,-0.22889 0.532855,0.25961 1.028563,0.74535 0.951242,1.39154 -0.164264,1.3096 -1.485273,2.1929 -1.51797,3.54422 z"
       id="stem" /><path
       style="fill:none;fill-rule:evenodd;stroke:#000000;stroke-width:0.102;stroke-linecap:round;paint-order:markers fill stroke"
       d="m 110.4166,91.765139 c 4.57482,0.82227 9.03875,2.265837 13.55236,3.178842 2.99342,1.510505 8.12373,-0.317156 9.47515,2.984556 -1.03656,3.448223 -5.29327,-1.622592 -7.72315,1.022675 -3.12285,1.187648 -6.84227,0.603259 -8.57574,4.100148 -4.35011,1.54339 -7.96446,4.22296 -10.86568,7.61316 -3.65852,1.41846 -7.433068,-1.24359 -11.052123,-0.28213 -2.580772,1.4976 -1.234383,8.2111 -5.580575,4.19537 -2.184993,-0.78154 -8.775692,-2.80111 -3.524,-3.92136 9.749108,-4.02872 17.244838,-12.126712 22.509818,-21.080331 1.07136,-1.053159 1.29627,1.787388 1.78394,2.18907 z"
       id="path397" /><path
       style="fill:none;fill-rule:evenodd;stroke:#000000;stroke-width:0.102;stroke-linecap:round;paint-order:markers fill stroke"
       d="m 100.80151,47.384396 c 1.89942,-2.520505 5.56029,-2.054663 7.89889,-3.999188 1.49731,-1.830256 5.61024,-2.469841 5.242,0.908917 -0.66893,3.515955 3.45484,2.733341 4.36875,0.346796 1.44229,-2.669801 4.05045,-1.977994 6.10813,-0.583511 2.84912,-0.64076 5.75558,-2.010472 7.83997,-4.142485 2.04428,-0.986839 4.39866,-1.872491 5.77219,-3.356399 1.97396,2.500811 -2.2275,3.449679 -3.71806,4.683519 -1.08348,2.246404 -2.13413,4.380589 -4.31694,5.909226 -1.52963,1.867603 -5.36761,4.12054 -1.64813,5.831076 -1.39087,2.316775 -5.74177,0.972955 -7.33118,3.650038 -0.96517,1.876113 -1.98662,5.390625 0.26322,6.62841 2.10955,1.954786 4.61117,3.166129 7.53125,3.134765 1.7273,2.399988 -3.3737,0.669081 -4.71903,1.802338 -1.77848,2.153733 -5.2904,0.94255 -6.80057,3.274981 -1.03462,1.847316 -4.32831,3.184988 -5.62116,3.533808 -6.41151,-8.023803 -5.06463,-19.299195 -10.86933,-27.622263"
       id="right" /><path
       style="fill:none;fill-rule:evenodd;stroke:#000000;stroke-width:0.102;stroke-linecap:round;paint-order:markers fill stroke"
       d="m 52.207663,35.860116 c -2.293568,-4.870053 2.221966,-10.3417 -0.930045,-15.118668 -1.677733,-2.073722 -3.63445,-10.672864 0.292555,-5.801833 3.408385,2.417163 7.960012,6.863853 12.311434,4.71258 2.888902,-2.871069 2.791212,-7.005641 7.772747,-6.740142 3.322915,-0.75015 1.229047,-10.1019873 3.871605,-7.7634321 2.062711,3.5998029 0.208735,10.1500071 6.307693,9.7909871 2.210747,3.05795 0.01,10.542702 6.517339,8.95509 4.11987,0.511378 6.291312,-9.070402 9.441796,-5.196398 -0.643079,4.790475 -5.152433,8.405365 -4.61181,13.509779 0.926858,4.566327 -2.727649,8.816327 -6.693995,4.714227 -10.577426,-4.847826 -23.265139,-4.101438 -33.652154,0.89808 -1.008586,-0.05167 -0.796769,-1.32762 -0.627165,-1.96027 z"
       id="top" /><path
       style="fill:none;fill-rule:evenodd;stroke:#000000;stroke-width:0.102;stroke-linecap:round;paint-order:markers fill stroke"
       d="m 31.363452,80.237809 c -2.139888,-12.35324 1.987065,-25.647305 10.855815,-34.530119 -1.565433,-4.085723 -8.526291,-0.432923 -9.318434,-5.752276 -4.131715,-1.622371 -5.227812,8.060988 -10.08379,3.608201 -4.070001,-2.084458 -8.832244,0.250303 -12.801925,-1.370497 -1.5591245,-2.765449 -8.1534228,-3.65093 -3.6371597,0.02807 3.8200737,1.982083 8.3720337,4.580035 8.7128447,9.400272 -1.336792,3.46596 -3.609012,7.482178 1.200506,9.850137 4.218665,1.7415 4.74095,7.938018 0.133833,9.540212 -4.626936,-0.02875 -5.012969,4.74948 0.0043,3.949011 4.90042,0.497743 8.552824,4.330702 13.229142,5.3391 0.56664,0.06655 1.145435,0.05695 1.704894,-0.06211 z"
       id="m1outline" /><path
       style="fill:#4d4d4d;fill-rule:evenodd;stroke:#000000;stroke-width:0.0670356;stroke-linecap:round;paint-order:markers fill stroke"
       d="m 42.643848,93.330029 c 0,-0.38868 0.07114,-0.43472 0.671838,-0.43472 0.797812,0 1.45056,-0.55803 1.797611,-1.53678 0.179343,-0.50577 0.225809,-4.17916 0.225809,-17.85168 0,-16.237383 -0.01799,-17.261492 -0.316796,-18.035893 -0.379873,-0.984488 -1.167218,-1.70035 -1.870141,-1.70035 -0.426284,0 -0.508321,-0.07016 -0.508321,-0.434719 v -0.434718 h 2.743433 2.743436 l 3.616412,15.7803 c 4.042505,17.63957 3.743862,16.3889 3.913439,16.3889 0.06908,0 0.571145,-1.97579 1.115692,-4.39066 0.54455,-2.41486 2.179418,-9.65293 3.633041,-16.0846 l 2.642952,-11.69394 h 2.750421 2.750423 v 0.434718 c 0,0.382424 -0.07459,0.434719 -0.620038,0.434719 -0.857776,0 -1.227907,0.240233 -1.683403,1.092613 l -0.391817,0.733208 v 17.475702 c 0,9.61164 0.06118,17.76353 0.135959,18.11532 0.07478,0.3518 0.360482,0.87998 0.6349,1.17375 0.400005,0.4282 0.64027,0.53411 1.211672,0.53411 0.644319,0 0.712727,0.0417 0.712727,0.43472 v 0.43472 h -4.173302 -4.173302 v -0.43472 c 0,-0.39299 0.06841,-0.43472 0.712729,-0.43472 0.872062,0 1.56146,-0.64525 1.89806,-1.7765 0.286203,-0.96188 0.477764,-31.957686 0.197506,-31.957686 -0.0971,0 -0.216471,0.136935 -0.265268,0.304303 -0.0488,0.167367 -1.81565,7.928063 -3.926335,17.245993 -2.110684,9.31794 -3.875767,16.97986 -3.922408,17.0265 -0.04664,0.0466 -0.122756,0.0468 -0.169148,5.3e-4 -0.04639,-0.0464 -1.807999,-7.65953 -3.914677,-16.91807 -4.477319,-19.677222 -3.996986,-17.659248 -4.203356,-17.659248 -0.272055,0 -0.0893,31.219618 0.187727,32.068558 0.340056,1.04209 1.057029,1.66563 1.915213,1.66563 0.640265,0 0.708927,0.0421 0.708927,0.43472 v 0.43472 h -3.390807 -3.390808 z"
       id="m1" /><path
       style="fill:#4d4d4d;fill-rule:evenodd;stroke:#000000;stroke-width:0.0670356;stroke-linecap:round;paint-order:markers fill stroke"
       d="m 70.118086,93.330029 c 0,-0.38932 0.07076,-0.43472 0.677537,-0.43472 0.555826,0 0.772943,-0.10866 1.208635,-0.60488 0.292106,-0.33269 0.593646,-0.9 0.670092,-1.26069 0.07645,-0.36069 0.138994,-8.32424 0.138994,-17.69678 0,-16.06916 -0.01807,-17.087803 -0.316797,-17.862003 -0.379872,-0.984488 -1.167214,-1.70035 -1.870141,-1.70035 -0.426283,0 -0.50832,-0.07016 -0.50832,-0.434719 v -0.434718 l 2.738729,5.29e-4 2.738731,5.29e-4 3.651639,15.924322 c 2.008401,8.75838 3.706071,16.01347 3.772601,16.12241 0.06653,0.10894 0.151016,0.16122 0.187753,0.11617 0.03674,-0.0451 1.652014,-7.12435 3.589499,-15.73179 1.937486,-8.607435 3.563403,-15.825943 3.61315,-16.041129 0.08913,-0.38553 0.130823,-0.391247 2.853799,-0.391247 h 2.76335 v 0.434718 c 0,0.392994 -0.06841,0.434718 -0.712729,0.434718 -0.936649,0 -1.618771,0.69777 -1.882002,1.925172 -0.260792,1.216033 -0.260792,34.058338 0,35.274368 0.263231,1.2274 0.945353,1.92517 1.882002,1.92517 0.644319,0 0.712729,0.0417 0.712729,0.43472 v 0.43472 h -4.173302 -4.173302 v -0.43472 c 0,-0.393 0.06841,-0.43472 0.712727,-0.43472 0.936649,0 1.618771,-0.69777 1.882002,-1.92517 0.239324,-1.11593 0.242936,-32.067409 0.0037,-31.54819 -0.08814,0.191275 -1.887924,7.97591 -3.999518,17.2992 -2.111597,9.32328 -3.873048,16.9852 -3.914336,17.02649 -0.04129,0.0413 -0.11684,0.0333 -0.167891,-0.0177 -0.05106,-0.0511 -1.77196,-7.47823 -3.824232,-16.50483 -2.052273,-9.02661 -3.818044,-16.783697 -3.923938,-17.237979 -0.105891,-0.454282 -0.267168,-0.825966 -0.358391,-0.825966 -0.275532,0 -0.08969,31.209915 0.191312,32.128705 0.30166,0.98633 1.048031,1.60548 1.93534,1.60548 0.611764,0 0.682207,0.0449 0.682207,0.43473 v 0.43471 H 73.508908 70.1181 Z"
       id="m2" /></g></svg>
