<?xml version="1.0" encoding="UTF-8" standalone="no"?>
<!-- Created with Inkscape (http://www.inkscape.org/) -->

<svg
   width="144mm"
   height="144mm"
   viewBox="0 0 144 144"
   version="1.1"
   id="svg5"
   xml:space="preserve"
   sodipodi:docname="logo.svg"
   inkscape:version="1.2.1 (9c6d41e410, 2022-07-14)"
   xmlns:inkscape="http://www.inkscape.org/namespaces/inkscape"
   xmlns:sodipodi="http://sodipodi.sourceforge.net/DTD/sodipodi-0.dtd"
   xmlns="http://www.w3.org/2000/svg"
   xmlns:svg="http://www.w3.org/2000/svg"><sodipodi:namedview
     id="namedview7"
     pagecolor="#ffffff"
     bordercolor="#000000"
     borderopacity="0.25"
     inkscape:showpageshadow="2"
     inkscape:pageopacity="0.0"
     inkscape:pagecheckerboard="0"
     inkscape:deskcolor="#d1d1d1"
     inkscape:document-units="mm"
     showgrid="false"
     inkscape:zoom="1.5215769"
     inkscape:cx="278.32967"
     inkscape:cy="289.8309"
     inkscape:window-width="1920"
     inkscape:window-height="1009"
     inkscape:window-x="2552"
     inkscape:window-y="-8"
     inkscape:window-maximized="1"
     inkscape:current-layer="layer1" /><defs
     id="defs2" /><g
     inkscape:label="Layer 1"
     inkscape:groupmode="layer"
     id="layer1"><g
       aria-label="MM"
       transform="matrix(0.70393301,0,0,1.4205897,-32.214758,-89.512764)"
       id="text472"
       style="font-size:43.8702px;font-family:Georgia;-inkscape-font-specification:Georgia;text-align:center;text-anchor:middle;fill:none;fill-rule:evenodd;stroke:#000000;stroke-width:0.0652487;stroke-linecap:round;paint-order:markers fill stroke" /><path
       style="fill:none;fill-rule:evenodd;stroke:#000000;stroke-width:0.102;stroke-linecap:round;paint-order:markers fill stroke"
       d="m 54.381259,111.1535 c -1.622505,-0.0666 -3.283932,-0.18889 -4.850244,0.30656 -1.598006,0.66522 -3.138095,1.51239 -4.773317,2.0607 -1.574353,0.3134 -3.172882,0.73305 -4.778958,0.50286 -0.490967,-0.33963 -1.580864,-0.28276 -1.334308,-1.11065 -0.132622,-1.23172 0.71398,-2.26523 1.057056,-3.40502 0.112478,-0.57935 -0.526098,-1.41074 -1.188299,-1.25688 -1.034411,0.12639 -2.031973,-0.0606 -3.013693,-0.38242 -0.641014,-0.50965 -1.061618,-1.25944 -1.376142,-2.01865 -1.004813,-0.39635 -2.133725,-0.47301 -3.043031,-1.08679 0.341077,-0.83974 0.114159,-1.70481 0,-2.56485 -0.714753,-0.68213 -1.479184,-1.4462 -2.543816,-1.3911 -0.852123,-0.0779 -1.802331,0.15626 -2.590631,-0.12464 -1.439296,-0.953137 -2.88659,-2.031392 -3.73382,-3.570471 -0.858052,-0.310462 -1.993796,-0.162343 -2.500445,-1.053111 -0.597506,-0.922381 -1.649459,-1.294637 -2.542296,-1.859509 -2.045756,0.03675 -4.088954,-0.194116 -6.129148,-0.183316 -0.917106,0.0517 -1.8627886,0.305815 -2.7005691,-0.204369 -1.0416892,-0.203676 0.5256991,-0.624437 0.8463533,-0.941466 0.8858268,-0.710657 1.9595288,-0.834916 3.0710408,-0.714079 1.124998,-0.50558 2.143651,-1.222199 3.400869,-0.752582 1.612776,0.401831 3.169207,-0.375828 4.641432,-0.942828 1.915984,-0.01776 3.884814,0.197117 5.760348,-0.22468 0.924478,-0.429289 1.91157,-0.490936 2.915637,-0.452911 0.693528,0.04402 1.365682,0.03042 1.818035,-0.575771 0.621769,-0.477144 1.027852,-1.168041 1.547694,-1.746198 0.960129,0.423195 1.565069,1.182414 1.818425,2.2064 4.01391,9.263688 11.687216,16.838781 20.967183,20.798411 -0.076,0.28446 -0.534406,0.45762 -0.745356,0.68736 z"
       id="path401" /><path
       style="fill:none;fill-rule:evenodd;stroke:#000000;stroke-width:0.102;stroke-linecap:round;paint-order:markers fill stroke"
       d="m 66.596971,118.45681 c -0.384742,1.53045 -0.914489,3.0259 -1.21214,4.57731 -0.105243,1.39732 -0.455447,2.76472 -0.711629,4.1404 0.0191,0.40324 -0.33459,0.61513 -0.560297,0.89266 -0.534098,0.57861 -1.068196,1.15721 -1.602294,1.73582 -0.869437,-0.13042 -1.738875,-0.26083 -2.608312,-0.39125 0.115889,-1.02884 0.231779,-2.05767 0.347668,-3.08651 0.652078,-0.99985 1.304156,-1.99971 1.956234,-2.99956 0.02363,-1.17001 0.01136,-2.34712 0.05735,-3.51271 0.456559,-1.18066 0.957834,-2.34598 1.386252,-3.53631 0.257075,-0.88351 0.51415,-1.76702 0.771225,-2.65053 0.284284,-0.84112 1.294171,-0.1341 1.935164,-0.22219 0.617084,0.19642 1.625758,-0.093 2.015901,0.3495 -0.186741,0.93964 -0.660141,1.79655 -0.997197,2.689 -0.267959,0.66745 -0.573791,1.3237 -0.777926,2.01437 z"
       id="stem" /><path
       style="fill:none;fill-rule:evenodd;stroke:#000000;stroke-width:0.102;stroke-linecap:round;paint-order:markers fill stroke"
       d="m 110.4166,91.765139 c 1.96424,0.532248 4.0033,0.844404 5.99286,1.320564 2.3261,0.30204 4.46145,1.412581 6.74039,1.884496 1.67197,0.198333 3.39779,0.130845 4.97345,0.804617 0.93902,0.41611 1.93138,0.488625 2.94497,0.424453 0.63314,0.128696 1.6538,-0.268617 2.02193,0.219799 0.3907,0.910466 0.38179,1.896174 0.45345,2.866711 -2.13871,-0.23004 -4.23371,-0.681337 -6.30342,-1.26069 -1.07759,0.576884 -1.98982,1.591296 -3.2834,1.596732 -1.58723,0.306512 -3.18401,0.491769 -4.80238,0.402979 -0.1927,2.2824 -1.96533,3.34482 -3.96078,3.9466 -1.84874,0.95628 -3.91261,1.62078 -5.46387,3.04024 -1.13206,1.0951 -1.96394,2.68933 -2.93347,3.7249 -2.54831,0.26074 -5.12502,0.37243 -7.644379,-0.21331 -1.531833,-0.37893 -3.081081,-0.46461 -4.646059,-0.32608 0.267868,1.5084 -1.323738,2.39241 -1.089649,3.84383 0.164797,0.88652 -0.430986,1.57482 -0.798701,2.32256 -1.577928,-1.28887 -3.505955,-1.86786 -5.329537,-2.69884 -1.10225,-0.92459 -3.759722,-0.89043 -4.101143,-1.96119 7.68112,-2.4372 14.407521,-7.38971 19.441028,-13.637101 2.33594,-2.774584 4.4029,-5.77441 6.2436,-8.892021 0.88171,0.310578 1.06655,1.814554 1.54511,2.590751 z"
       id="path397" /><path
       style="fill:none;fill-rule:evenodd;stroke:#000000;stroke-width:0.102;stroke-linecap:round;paint-order:markers fill stroke"
       d="m 100.80151,47.384396 c 0.90669,-1.378845 2.84213,-2.084482 4.53017,-2.312237 1.3489,-0.458924 2.55241,-1.322215 3.82953,-1.968183 0.89658,-0.471783 1.64373,-1.391633 2.74027,-1.263793 1.37073,-0.445135 2.31927,1.221201 2.01456,2.437247 -0.18353,1.085832 0.3646,3.370139 1.79328,2.467253 1.33116,-0.09271 1.80674,-1.426626 2.67737,-2.239027 0.99177,-0.672741 1.69274,-2.192195 3.05875,-1.809052 0.92732,-0.06621 1.51823,0.835131 2.28388,1.233891 0.5376,0.270703 1.31112,0.103721 1.87226,-0.112222 1.81182,-0.75343 3.65061,-1.490323 5.29347,-2.568495 1.20626,-1.396595 2.69503,-2.389375 4.53373,-2.709157 1.3189,-0.01252 1.63761,-0.863896 1.63021,-1.986233 0.52911,-0.08833 1.3998,-0.373811 1.58217,0.423461 0.46011,0.561221 -0.40599,1.191868 -0.54263,1.784329 -0.23614,0.941882 -1.3129,1.005041 -2.03711,1.43673 -0.73784,0.336122 -1.47567,0.672245 -2.21351,1.008368 0.0768,2.130169 -1.02821,3.674576 -2.81412,4.756953 -1.34295,1.186768 -1.82046,3.097139 -3.69891,3.75626 -1.5772,0.770349 -0.75461,3.051082 1.03562,2.702537 0.29891,0.773984 0.13173,1.295381 -0.73164,1.439492 -1.31143,0.544404 -2.80713,0.543494 -4.07194,1.230167 -1.07101,0.333297 -2.34658,0.379692 -2.57225,1.687097 -0.41817,0.971333 -1.06746,1.885672 -0.89705,3.001448 -0.0639,1.184255 -0.42544,3.043986 1.00095,3.52892 0.85053,0.384735 1.7447,0.710276 2.27357,1.531405 0.36768,0.635744 0.9942,0.817274 1.68305,0.889448 1.38341,0.296758 2.7633,0.618411 4.18474,0.646503 0.15333,0.663034 0.6144,1.561229 -0.46412,1.282955 -1.67542,-0.03469 -3.32537,0.203117 -4.96986,0.499358 -0.81274,0.557451 -1.56389,1.290418 -2.41379,1.742008 -0.97775,0.02795 -1.95551,0.05591 -2.93326,0.08386 -1.29645,1.343662 -1.89857,3.872779 -4.19393,3.581847 -1.50269,0.07386 -2.11477,3.739763 -2.87413,0.882813 -1.43981,-1.825596 -2.6437,-3.843557 -3.36816,-6.06704 -2.47584,-6.965599 -2.9449,-14.759613 -7.22117,-20.998883"
       id="right" /><path
       style="fill:none;fill-rule:evenodd;stroke:#000000;stroke-width:0.102;stroke-linecap:round;paint-order:markers fill stroke"
       d="m 52.207663,35.860116 c -0.292539,-1.263382 -1.063015,-2.483246 -0.696738,-3.806614 0.218265,-2.84838 0.990379,-5.610645 1.261873,-8.452466 -0.935069,-1.426529 -1.958269,-2.876078 -2.453495,-4.508139 -0.170616,-1.207425 0.08378,-2.547449 -0.762044,-3.544213 -0.614753,-1.020448 -1.170541,-2.074105 -1.740258,-3.119918 1.223161,-0.124818 2.307459,0.152837 3.052542,1.235584 1.077494,1.837513 2.331823,3.46927 4.496625,4.055111 1.775224,0.538733 3.274618,1.734611 5.019238,2.303849 0.88333,0.149939 1.807045,0.565142 2.666416,0.557715 0.754143,-0.455276 1.621645,-0.799282 1.910659,-1.71112 0.846956,-1.264334 0.970906,-2.854776 1.883234,-4.092098 0.51212,-0.516809 0.322904,-1.556752 0.744551,-1.948473 0.750265,0.131963 1.710264,-0.161661 2.112267,0.676992 0.471202,0.470744 1.54689,0.655546 2.070652,0.589576 0.970176,-2.381131 1.893807,-4.8040529 2.257367,-7.3619128 0.304307,-1.1157767 0.608613,-2.2315533 0.91292,-3.34733 0.05002,2.2972475 1.581554,4.071681 2.26053,6.17301 0.09914,1.3719618 -0.756278,3.0040918 0.203856,4.1700108 0.286178,0.918079 0.969242,1.022665 1.815633,0.792485 1.09013,-0.108218 2.189896,-0.02325 3.284081,-0.05019 0.345241,0.812349 0.834778,1.599421 0.594356,2.51436 -0.07836,1.452659 -0.293939,2.913806 0.132317,4.335246 -0.298362,2.123107 1.479919,2.483774 3.234711,2.540319 1.185182,0.500744 2.212774,0.311117 3.095699,-0.586361 0.997585,-0.936523 2.576139,-0.852264 3.409923,-2.004678 0.977016,-0.61461 0.822035,-1.980525 1.419585,-2.82144 1.242755,-0.725301 2.395739,-1.624188 3.763299,-2.108156 -0.430961,2.680633 -0.905559,5.452821 -2.351063,7.780705 -0.671285,0.941913 -1.654556,1.726986 -1.766384,2.950144 -0.981995,2.810857 -0.694226,5.846129 -1.4456,8.709913 -0.215389,1.144362 -0.294705,2.310915 -0.451283,3.464868 -1.175177,0.485338 -2.628386,-1.3315 -3.97815,-1.65176 -11.14772,-5.439952 -24.840558,-5.238467 -35.811541,0.564015 -0.330592,-0.571293 -0.06202,-1.579078 -0.145778,-2.299035 z"
       id="top" /><path
       style="fill:none;fill-rule:evenodd;stroke:#000000;stroke-width:0.102;stroke-linecap:round;paint-order:markers fill stroke"
       d="m 31.363452,80.237809 c -2.031778,-11.815282 1.61302,-24.443457 9.695727,-33.309899 0.572757,-0.731886 2.600578,-2.134008 0.982199,-2.710759 -0.652379,-0.393991 -1.294131,-0.833391 -2.089751,-0.615241 -1.226426,0.03361 -2.476012,0.2943 -3.649655,-0.189606 -0.558707,-0.281173 -1.562739,-0.132991 -1.836782,-0.688618 -0.216606,-0.710709 -0.232131,-1.558462 -0.566695,-2.188776 -0.680326,-0.396162 -1.306281,-1.00198 -2.018735,-1.274258 -0.659301,0.119297 -1.555856,-0.143795 -1.762673,0.704782 -0.674875,0.911125 -0.728957,2.135494 -1.252596,3.099067 -0.64331,0.432889 -1.099202,1.364581 -1.988714,1.142215 -1.337917,-0.08763 -2.761253,0.274165 -3.984308,-0.417815 -1.483062,-0.627409 -3.038544,-1.172254 -4.616063,-1.426529 -1.151885,0.286257 -2.303796,0.572264 -3.499024,0.414316 -1.445458,-0.02087 -2.922448,-0.08605 -4.329079,-0.372652 C 8.7306034,41.686809 7.3297761,40.394272 6.2048628,39.100527 5.4794324,39.001488 4.7546118,38.906151 4.119769,39.35707 c -0.5136616,0.321699 0.5570953,1.14396 0.6906845,1.670144 1.2554619,0.85515 2.6918282,1.516503 3.881015,2.507549 1.4015855,1.081321 3.0275725,1.909531 4.3962985,2.99221 0.683995,1.547093 1.510263,3.059187 2.125314,4.61876 -0.05439,0.76064 0.107695,1.608259 -0.0788,2.315818 -0.845641,0.856334 -1.638528,1.761594 -2.442572,2.656505 0.180189,0.804263 0.04639,1.748294 0.765183,2.312804 1.019221,1.167576 1.825253,2.566738 3.237042,3.307871 1.078179,0.964575 2.047679,2.058822 3.083695,3.073705 0.0068,0.808902 0.374701,1.69925 0.140112,2.453695 -0.634139,1.018968 -1.190363,2.10341 -2.200288,2.806591 -0.613411,0.582597 -1.208044,1.198504 -2.094,1.297618 -1.286738,0.399292 -2.631048,0.670409 -3.716227,1.518447 -1.052511,0.421971 -0.757179,0.700702 0.207129,0.908337 1.61287,0.566154 3.201526,1.226275 4.921007,1.378679 0.868148,0.225529 1.871454,0.156931 2.656417,0.563484 0.695227,0.479595 1.232055,1.396695 2.187216,1.158342 0.740117,-0.05288 1.467405,-0.0736 1.906938,0.627073 0.710812,0.852349 1.670778,1.346976 2.669108,1.786523 0.840358,0.521224 1.761329,0.77697 2.745609,0.824223 0.707156,0.01199 1.507499,0.387574 2.162801,0.102361 z"
       id="m1outline" /><path
       style="fill:#4d4d4d;fill-rule:evenodd;stroke:#000000;stroke-width:0.0670356;stroke-linecap:round;paint-order:markers fill stroke"
       d="m 42.643848,93.330029 c 0,-0.38868 0.07114,-0.43472 0.671838,-0.43472 0.797812,0 1.45056,-0.55803 1.797611,-1.53678 0.179343,-0.50577 0.225809,-4.17916 0.225809,-17.85168 0,-16.237383 -0.01799,-17.261492 -0.316796,-18.035893 -0.379873,-0.984488 -1.167218,-1.70035 -1.870141,-1.70035 -0.426284,0 -0.508321,-0.07016 -0.508321,-0.434719 v -0.434718 h 2.743433 2.743436 l 3.616412,15.7803 c 4.042505,17.63957 3.743862,16.3889 3.913439,16.3889 0.06908,0 0.571145,-1.97579 1.115692,-4.39066 0.54455,-2.41486 2.179418,-9.65293 3.633041,-16.0846 l 2.642952,-11.69394 h 2.750421 2.750423 v 0.434718 c 0,0.382424 -0.07459,0.434719 -0.620038,0.434719 -0.857776,0 -1.227907,0.240233 -1.683403,1.092613 l -0.391817,0.733208 v 17.475702 c 0,9.61164 0.06118,17.76353 0.135959,18.11532 0.07478,0.3518 0.360482,0.87998 0.6349,1.17375 0.400005,0.4282 0.64027,0.53411 1.211672,0.53411 0.644319,0 0.712727,0.0417 0.712727,0.43472 v 0.43472 h -4.173302 -4.173302 v -0.43472 c 0,-0.39299 0.06841,-0.43472 0.712729,-0.43472 0.872062,0 1.56146,-0.64525 1.89806,-1.7765 0.286203,-0.96188 0.477764,-31.957686 0.197506,-31.957686 -0.0971,0 -0.216471,0.136935 -0.265268,0.304303 -0.0488,0.167367 -1.81565,7.928063 -3.926335,17.245993 -2.110684,9.31794 -3.875767,16.97986 -3.922408,17.0265 -0.04664,0.0466 -0.122756,0.0468 -0.169148,5.3e-4 -0.04639,-0.0464 -1.807999,-7.65953 -3.914677,-16.91807 -4.477319,-19.677222 -3.996986,-17.659248 -4.203356,-17.659248 -0.272055,0 -0.0893,31.219618 0.187727,32.068558 0.340056,1.04209 1.057029,1.66563 1.915213,1.66563 0.640265,0 0.708927,0.0421 0.708927,0.43472 v 0.43472 h -3.390807 -3.390808 z"
       id="m1" /><path
       style="fill:#4d4d4d;fill-rule:evenodd;stroke:#000000;stroke-width:0.0670356;stroke-linecap:round;paint-order:markers fill stroke"
       d="m 70.118086,93.330029 c 0,-0.38932 0.07076,-0.43472 0.677537,-0.43472 0.555826,0 0.772943,-0.10866 1.208635,-0.60488 0.292106,-0.33269 0.593646,-0.9 0.670092,-1.26069 0.07645,-0.36069 0.138994,-8.32424 0.138994,-17.69678 0,-16.06916 -0.01807,-17.087803 -0.316797,-17.862003 -0.379872,-0.984488 -1.167214,-1.70035 -1.870141,-1.70035 -0.426283,0 -0.50832,-0.07016 -0.50832,-0.434719 v -0.434718 l 2.738729,5.29e-4 2.738731,5.29e-4 3.651639,15.924322 c 2.008401,8.75838 3.706071,16.01347 3.772601,16.12241 0.06653,0.10894 0.151016,0.16122 0.187753,0.11617 0.03674,-0.0451 1.652014,-7.12435 3.589499,-15.73179 1.937486,-8.607435 3.563403,-15.825943 3.61315,-16.041129 0.08913,-0.38553 0.130823,-0.391247 2.853799,-0.391247 h 2.76335 v 0.434718 c 0,0.392994 -0.06841,0.434718 -0.712729,0.434718 -0.936649,0 -1.618771,0.69777 -1.882002,1.925172 -0.260792,1.216033 -0.260792,34.058338 0,35.274368 0.263231,1.2274 0.945353,1.92517 1.882002,1.92517 0.644319,0 0.712729,0.0417 0.712729,0.43472 v 0.43472 h -4.173302 -4.173302 v -0.43472 c 0,-0.393 0.06841,-0.43472 0.712727,-0.43472 0.936649,0 1.618771,-0.69777 1.882002,-1.92517 0.239324,-1.11593 0.242936,-32.067409 0.0037,-31.54819 -0.08814,0.191275 -1.887924,7.97591 -3.999518,17.2992 -2.111597,9.32328 -3.873048,16.9852 -3.914336,17.02649 -0.04129,0.0413 -0.11684,0.0333 -0.167891,-0.0177 -0.05106,-0.0511 -1.77196,-7.47823 -3.824232,-16.50483 -2.052273,-9.02661 -3.818044,-16.783697 -3.923938,-17.237979 -0.105891,-0.454282 -0.267168,-0.825966 -0.358391,-0.825966 -0.275532,0 -0.08969,31.209915 0.191312,32.128705 0.30166,0.98633 1.048031,1.60548 1.93534,1.60548 0.611764,0 0.682207,0.0449 0.682207,0.43473 v 0.43471 H 73.508908 70.1181 Z"
       id="m2" /><circle
       style="fill:none;fill-rule:evenodd;stroke:#000000;stroke-width:5;stroke-linecap:round;stroke-dasharray:none;paint-order:markers fill stroke"
       id="path470"
       cx="69.815865"
       cy="73.539436"
       r="40" /></g></svg>
