<?xml version="1.0" encoding="UTF-8"?>
<svg xmlns="http://www.w3.org/2000/svg" xmlns:xlink="http://www.w3.org/1999/xlink"
     width="88.9" height="50.8" viewBox="0 0 88.9 50.8">
<defs>
<clipPath id="d0">
<rect x="0" y="0" width="88.9" height="50.8" rx="3" ry="3" />
</clipPath>
</defs>
<text x="78.9" y="12.6" font-size="10.0" text-anchor="end" font-family="Times New Roman" fill="black" style="font-feature-settings: 'smcp';">Maxwell Made</text>
<text x="78.9" y="18.5" font-size="5" text-anchor="end" font-family="Times New Roman" fill="black">.ca</text>
<text x="78.9" y="46.8" font-size="4" text-anchor="end" font-family="Times New Roman" fill="black" style="font-feature-settings: 'smcp';">613 324 3802</text>
<text x="78.9" y="41.8" font-size="4" text-anchor="end" font-family="Times New Roman" fill="black" style="font-feature-settings: 'smcp';">Ottawa, ON</text>
<text x="78.9" y="36.8" font-size="4" text-anchor="end" font-family="Times New Roman" fill="black" style="font-feature-settings: 'smcp';">Furniture Maker</text>
<text x="78.9" y="31.799999999999997" font-size="4" text-anchor="end" font-family="Times New Roman" fill="black" style="font-feature-settings: 'smcp';">Michael Maxwell</text>
<image x="11" y="18" width="30" height="30" xlink:href="logo.png" />
<g clip-path="url(#d0)">
<rect x="0" y="0" width="1.6666666666666667" height="50.8" fill="grey" />
<rect x="87.23333333333333" y="0" width="1.6666666666666667" height="50.8" fill="grey" />
<path d="M87.23333333333333,0.0 L82.23333333333333,-0.8367130454070979 L82.23333333333333,3.136713045407098 L87.23333333333333,2.3 Z" fill="grey" stroke="grey" stroke-width="0.003in" />
<path d="M1.6666666666666667,0.0 L6.666666666666667,-0.8367130454070979 L6.666666666666667,3.136713045407098 L1.6666666666666667,2.3 Z" fill="grey" stroke="grey" stroke-width="0.003in" />
<path d="M87.23333333333333,16.166666666666668 L82.23333333333333,15.329953621259568 L82.23333333333333,19.303379712073763 L87.23333333333333,18.466666666666665 Z" fill="grey" stroke="grey" stroke-width="0.003in" />
<path d="M1.6666666666666667,16.166666666666668 L6.666666666666667,15.329953621259568 L6.666666666666667,19.303379712073763 L1.6666666666666667,18.466666666666665 Z" fill="grey" stroke="grey" stroke-width="0.003in" />
<path d="M87.23333333333333,32.333333333333336 L82.23333333333333,31.496620287926238 L82.23333333333333,35.470046378740435 L87.23333333333333,34.63333333333333 Z" fill="grey" stroke="grey" stroke-width="0.003in" />
<path d="M1.6666666666666667,32.333333333333336 L6.666666666666667,31.496620287926238 L6.666666666666667,35.470046378740435 L1.6666666666666667,34.63333333333333 Z" fill="grey" stroke="grey" stroke-width="0.003in" />
<path d="M87.23333333333333,48.5 L82.23333333333333,47.6632869545929 L82.23333333333333,51.6367130454071 L87.23333333333333,50.8 Z" fill="grey" stroke="grey" stroke-width="0.003in" />
<path d="M1.6666666666666667,48.5 L6.666666666666667,47.6632869545929 L6.666666666666667,51.6367130454071 L1.6666666666666667,50.8 Z" fill="grey" stroke="grey" stroke-width="0.003in" />
<rect x="0" y="0" width="88.9" height="50.8" rx="3" ry="3" fill="none" stroke="black" stroke-width="0.001in" />
</g>
</svg>